<?xml version="1.0" ?><!DOCTYPE svg  PUBLIC '-//W3C//DTD SVG 1.1//EN'  'http://www.w3.org/Graphics/SVG/1.1/DTD/svg11.dtd'><svg enable-background="new 0 0 96 96" height="96px" id="Layer_1" version="1.1" viewBox="0 0 96 96" width="96px" xml:space="preserve" xmlns="http://www.w3.org/2000/svg" xmlns:xlink="http://www.w3.org/1999/xlink"><path d="M54.688,69.369  c-1.991,0.572-4.095,0.879-6.271,0.879c-12.518,0-22.666-10.146-22.666-22.666c0-5.436,1.914-10.425,5.104-14.331" fill="none" stroke="#aa38cb" stroke-linecap="round" stroke-miterlimit="10" stroke-width="2"/><path d="M34.535,29.665  c3.836-2.977,8.652-4.748,13.883-4.749c12.518,0,22.666,10.147,22.666,22.666c0,8.822-5.039,16.465-12.396,20.21" fill="none" stroke="#aa38cb" stroke-linecap="round" stroke-miterlimit="10" stroke-width="2"/><g><path fill="#aa38cb" d="M48.379,40.22c0.434,0,0.775,0.342,0.775,0.774v0.396c1.063,0.126,1.963,0.468,2.791,0.99   c0.287,0.162,0.539,0.432,0.539,0.864c0,0.558-0.449,0.991-1.008,0.991c-0.18,0-0.359-0.054-0.539-0.162   c-0.631-0.378-1.244-0.648-1.855-0.792v3.457c2.736,0.684,3.906,1.783,3.906,3.709c0,1.98-1.547,3.295-3.834,3.511v1.08   c0,0.433-0.342,0.774-0.775,0.774c-0.432,0-0.791-0.342-0.791-0.774v-1.116c-1.352-0.145-2.594-0.63-3.691-1.404   c-0.307-0.198-0.486-0.486-0.486-0.864c0-0.558,0.432-0.99,0.99-0.99c0.217,0,0.432,0.071,0.594,0.198   c0.848,0.611,1.676,1.025,2.666,1.206v-3.547c-2.629-0.685-3.854-1.675-3.854-3.709c0-1.927,1.529-3.259,3.781-3.439v-0.378   C47.588,40.562,47.947,40.22,48.379,40.22z M47.66,46.36v-3.187c-1.152,0.108-1.729,0.72-1.729,1.512   C45.932,45.441,46.273,45.91,47.66,46.36z M49.082,48.862v3.277c1.152-0.126,1.783-0.702,1.783-1.566   C50.865,49.781,50.469,49.295,49.082,48.862z"/></g></svg>